G04 Layer_Physical_Order=2*
G04 Layer_Color=16711680*
%FSLAX25Y25*%
%MOIN*%
G70*
G01*
G75*
%ADD34C,0.01181*%
%ADD35C,0.04724*%
G04:AMPARAMS|DCode=36|XSize=55.12mil|YSize=78.74mil|CornerRadius=0mil|HoleSize=0mil|Usage=FLASHONLY|Rotation=90.000|XOffset=0mil|YOffset=0mil|HoleType=Round|Shape=Octagon|*
%AMOCTAGOND36*
4,1,8,-0.03937,-0.01378,-0.03937,0.01378,-0.02559,0.02756,0.02559,0.02756,0.03937,0.01378,0.03937,-0.01378,0.02559,-0.02756,-0.02559,-0.02756,-0.03937,-0.01378,0.0*
%
%ADD36OCTAGOND36*%

%ADD37C,0.17716*%
G04:AMPARAMS|DCode=38|XSize=55.12mil|YSize=78.74mil|CornerRadius=5.51mil|HoleSize=0mil|Usage=FLASHONLY|Rotation=90.000|XOffset=0mil|YOffset=0mil|HoleType=Round|Shape=RoundedRectangle|*
%AMROUNDEDRECTD38*
21,1,0.05512,0.06772,0,0,90.0*
21,1,0.04409,0.07874,0,0,90.0*
1,1,0.01102,0.03386,0.02205*
1,1,0.01102,0.03386,-0.02205*
1,1,0.01102,-0.03386,-0.02205*
1,1,0.01102,-0.03386,0.02205*
%
%ADD38ROUNDEDRECTD38*%
%ADD39P,0.07671X8X202.5*%
G04:AMPARAMS|DCode=40|XSize=70.87mil|YSize=70.87mil|CornerRadius=17.72mil|HoleSize=0mil|Usage=FLASHONLY|Rotation=180.000|XOffset=0mil|YOffset=0mil|HoleType=Round|Shape=RoundedRectangle|*
%AMROUNDEDRECTD40*
21,1,0.07087,0.03543,0,0,180.0*
21,1,0.03543,0.07087,0,0,180.0*
1,1,0.03543,-0.01772,0.01772*
1,1,0.03543,0.01772,0.01772*
1,1,0.03543,0.01772,-0.01772*
1,1,0.03543,-0.01772,-0.01772*
%
%ADD40ROUNDEDRECTD40*%
%ADD41C,0.02400*%
%ADD42C,0.02756*%
G36*
X210652Y153040D02*
X209850Y152355D01*
X208319Y150562D01*
X207087Y148552D01*
X206185Y146374D01*
X205635Y144082D01*
X205450Y141732D01*
X205635Y139382D01*
X206185Y137090D01*
X207087Y134912D01*
X208319Y132902D01*
X209850Y131110D01*
X211642Y129579D01*
X213652Y128347D01*
X215706Y127496D01*
X215736Y126983D01*
X215579Y126935D01*
X213867Y126020D01*
X212366Y124788D01*
X211134Y123287D01*
X210218Y121574D01*
X209654Y119716D01*
X209464Y117783D01*
X209654Y115851D01*
X210218Y113993D01*
X211134Y112280D01*
X212366Y110779D01*
X213867Y109547D01*
X215579Y108632D01*
X217438Y108068D01*
X219370Y107878D01*
X221303Y108068D01*
X223161Y108632D01*
X224873Y109547D01*
X226375Y110779D01*
X227607Y112280D01*
X228522Y113993D01*
X229086Y115851D01*
X229276Y117783D01*
X229086Y119716D01*
X228522Y121574D01*
X227607Y123287D01*
X226375Y124788D01*
X224873Y126020D01*
X223773Y126608D01*
X223841Y127139D01*
X225115Y127445D01*
X227293Y128347D01*
X229303Y129579D01*
X231095Y131110D01*
X231780Y131912D01*
X232249Y131739D01*
Y25741D01*
X231780Y25568D01*
X231095Y26371D01*
X229303Y27902D01*
X227293Y29133D01*
X225115Y30035D01*
X222822Y30586D01*
X220472Y30771D01*
X218122Y30586D01*
X215830Y30035D01*
X213652Y29133D01*
X211642Y27902D01*
X209850Y26371D01*
X208319Y24578D01*
X207087Y22568D01*
X206185Y20390D01*
X205635Y18098D01*
X205450Y15748D01*
X205621Y13578D01*
X205279Y13078D01*
X185426D01*
Y3971D01*
X25741D01*
X25568Y4440D01*
X26371Y5125D01*
X27902Y6918D01*
X29133Y8928D01*
X30035Y11106D01*
X30586Y13398D01*
X30771Y15748D01*
X30586Y18098D01*
X30035Y20390D01*
X29133Y22568D01*
X27902Y24578D01*
X26371Y26371D01*
X24578Y27902D01*
X22568Y29133D01*
X20390Y30035D01*
X18098Y30586D01*
X15748Y30771D01*
X13398Y30586D01*
X11106Y30035D01*
X8928Y29133D01*
X6918Y27902D01*
X5125Y26371D01*
X4440Y25568D01*
X3971Y25741D01*
Y131739D01*
X4440Y131912D01*
X5125Y131110D01*
X6918Y129579D01*
X8928Y128347D01*
X11106Y127445D01*
X13398Y126894D01*
X15748Y126710D01*
X18098Y126894D01*
X20390Y127445D01*
X22568Y128347D01*
X24578Y129579D01*
X26371Y131110D01*
X27902Y132902D01*
X29133Y134912D01*
X30035Y137090D01*
X30586Y139382D01*
X30771Y141732D01*
X30586Y144082D01*
X30035Y146374D01*
X29133Y148552D01*
X27902Y150562D01*
X26371Y152355D01*
X25568Y153040D01*
X25741Y153509D01*
X210479D01*
X210652Y153040D01*
D02*
G37*
%LPC*%
G36*
X219370Y55248D02*
X217438Y55058D01*
X215579Y54494D01*
X213867Y53579D01*
X212366Y52347D01*
X211134Y50846D01*
X210218Y49133D01*
X209654Y47275D01*
X209464Y45342D01*
X209654Y43410D01*
X210218Y41552D01*
X211134Y39839D01*
X212366Y38338D01*
X213867Y37106D01*
X215579Y36191D01*
X217438Y35627D01*
X219370Y35436D01*
X221303Y35627D01*
X223161Y36191D01*
X224873Y37106D01*
X226375Y38338D01*
X227607Y39839D01*
X228522Y41552D01*
X229086Y43410D01*
X229276Y45342D01*
X229086Y47275D01*
X228522Y49133D01*
X227607Y50846D01*
X226375Y52347D01*
X224873Y53579D01*
X223161Y54494D01*
X221303Y55058D01*
X219370Y55248D01*
D02*
G37*
G36*
X94000Y57243D02*
X93142Y57072D01*
X92414Y56586D01*
X91928Y55858D01*
X91757Y55000D01*
X91928Y54142D01*
X92414Y53414D01*
X93142Y52928D01*
X93937Y52769D01*
X102853Y43853D01*
X103379Y43502D01*
X104000Y43378D01*
X104467D01*
X105142Y42928D01*
X106000Y42757D01*
X106858Y42928D01*
X107586Y43414D01*
X108072Y44142D01*
X108243Y45000D01*
X108072Y45858D01*
X107586Y46586D01*
X106858Y47072D01*
X106000Y47243D01*
X105142Y47072D01*
X104590Y46704D01*
X96231Y55063D01*
X96072Y55858D01*
X95586Y56586D01*
X94858Y57072D01*
X94000Y57243D01*
D02*
G37*
G36*
X137000Y71622D02*
X113000D01*
X112379Y71498D01*
X111853Y71147D01*
X110853Y70147D01*
X110502Y69621D01*
X110378Y69000D01*
Y65000D01*
X110502Y64379D01*
X110758Y63996D01*
X110911Y63225D01*
X110142Y63072D01*
X109414Y62586D01*
X108928Y61858D01*
X108757Y61000D01*
X108928Y60142D01*
X109414Y59414D01*
X110142Y58928D01*
X111000Y58757D01*
X111858Y58928D01*
X112533Y59378D01*
X133328D01*
X141988Y50719D01*
Y45391D01*
X142111Y44770D01*
X142463Y44244D01*
X143853Y42853D01*
X144379Y42502D01*
X145000Y42378D01*
X154328D01*
X155378Y41328D01*
Y29533D01*
X154928Y28858D01*
X154757Y28000D01*
X154928Y27142D01*
X155414Y26414D01*
X156142Y25928D01*
X157000Y25757D01*
X157858Y25928D01*
X158586Y26414D01*
X159072Y27142D01*
X159243Y28000D01*
X159072Y28858D01*
X158622Y29533D01*
Y32745D01*
X159063Y32980D01*
X159142Y32928D01*
X160000Y32757D01*
X160858Y32928D01*
X161586Y33414D01*
X162072Y34142D01*
X162243Y35000D01*
X162072Y35858D01*
X161622Y36533D01*
Y42000D01*
X161498Y42621D01*
X161147Y43147D01*
X157377Y46916D01*
X157568Y47378D01*
X166467D01*
X167142Y46928D01*
X168000Y46757D01*
X168858Y46928D01*
X169586Y47414D01*
X170072Y48142D01*
X170243Y49000D01*
X170072Y49858D01*
X169586Y50586D01*
X168858Y51072D01*
X168000Y51243D01*
X167142Y51072D01*
X166467Y50622D01*
X156672D01*
X141622Y65672D01*
Y67000D01*
X141498Y67621D01*
X141147Y68147D01*
X138147Y71147D01*
X137621Y71498D01*
X137000Y71622D01*
D02*
G37*
G36*
X103000Y33243D02*
X102142Y33072D01*
X101414Y32586D01*
X100928Y31858D01*
X100757Y31000D01*
X100928Y30142D01*
X101378Y29467D01*
Y25533D01*
X100928Y24858D01*
X100757Y24000D01*
X100928Y23142D01*
X101414Y22414D01*
X102142Y21928D01*
X103000Y21757D01*
X103858Y21928D01*
X104586Y22414D01*
X105072Y23142D01*
X105243Y24000D01*
X105072Y24858D01*
X104622Y25533D01*
Y29467D01*
X105072Y30142D01*
X105243Y31000D01*
X105072Y31858D01*
X104586Y32586D01*
X103858Y33072D01*
X103000Y33243D01*
D02*
G37*
G36*
X131772Y18567D02*
X128228D01*
X127505Y18472D01*
X126831Y18193D01*
X126252Y17748D01*
X125807Y17169D01*
X125528Y16495D01*
X125433Y15772D01*
Y12228D01*
X125528Y11505D01*
X125807Y10831D01*
X126252Y10252D01*
X126831Y9807D01*
X127505Y9528D01*
X128228Y9433D01*
X131772D01*
X132495Y9528D01*
X133169Y9807D01*
X133748Y10252D01*
X134193Y10831D01*
X134472Y11505D01*
X134567Y12228D01*
Y15772D01*
X134472Y16495D01*
X134193Y17169D01*
X133748Y17748D01*
X133169Y18193D01*
X132495Y18472D01*
X131772Y18567D01*
D02*
G37*
G36*
X112272Y18543D02*
X107728D01*
X105457Y16272D01*
Y11728D01*
X107728Y9457D01*
X112272D01*
X114543Y11728D01*
Y16272D01*
X112272Y18543D01*
D02*
G37*
G36*
X122272D02*
X117728D01*
X115457Y16272D01*
Y11728D01*
X117728Y9457D01*
X122272D01*
X124543Y11728D01*
Y16272D01*
X122272Y18543D01*
D02*
G37*
G36*
X183059Y85319D02*
X176941D01*
X175063Y83441D01*
Y79685D01*
X176941Y77807D01*
X183059D01*
X184937Y79685D01*
Y83441D01*
X183059Y85319D01*
D02*
G37*
G36*
Y93980D02*
X176941D01*
X175063Y92102D01*
Y88346D01*
X176941Y86468D01*
X183059D01*
X184937Y88346D01*
Y92102D01*
X183059Y93980D01*
D02*
G37*
G36*
X159000Y108243D02*
X158142Y108072D01*
X157414Y107586D01*
X156928Y106858D01*
X156757Y106000D01*
X156928Y105142D01*
X157414Y104414D01*
X158142Y103928D01*
X159000Y103757D01*
X159858Y103928D01*
X160533Y104378D01*
X175486D01*
X175637Y103878D01*
X175496Y103784D01*
X175153Y103271D01*
X175033Y102665D01*
Y98256D01*
X175153Y97651D01*
X175496Y97138D01*
X176009Y96795D01*
X176614Y96674D01*
X183386D01*
X183991Y96795D01*
X184504Y97138D01*
X184847Y97651D01*
X184967Y98256D01*
Y102665D01*
X184847Y103271D01*
X184504Y103784D01*
X184363Y103878D01*
X184514Y104378D01*
X189328D01*
X189769Y103937D01*
X189928Y103142D01*
X190414Y102414D01*
X191142Y101928D01*
X192000Y101757D01*
X192858Y101928D01*
X193586Y102414D01*
X194072Y103142D01*
X194243Y104000D01*
X194072Y104858D01*
X193586Y105586D01*
X192858Y106072D01*
X192063Y106231D01*
X191147Y107147D01*
X190621Y107498D01*
X190000Y107622D01*
X160533D01*
X159858Y108072D01*
X159000Y108243D01*
D02*
G37*
G36*
X41000Y78391D02*
X40122Y78276D01*
X39304Y77937D01*
X38602Y77398D01*
X38063Y76696D01*
X37724Y75878D01*
X37609Y75000D01*
X37724Y74122D01*
X38063Y73304D01*
X38602Y72602D01*
X39304Y72063D01*
X40122Y71724D01*
X41000Y71609D01*
X41878Y71724D01*
X42696Y72063D01*
X43398Y72602D01*
X43937Y73304D01*
X44276Y74122D01*
X44391Y75000D01*
X44276Y75878D01*
X43937Y76696D01*
X43398Y77398D01*
X42696Y77937D01*
X41878Y78276D01*
X41000Y78391D01*
D02*
G37*
G36*
X30000Y61488D02*
X29072Y61303D01*
X28286Y60777D01*
X27760Y59991D01*
X27575Y59063D01*
X27760Y58135D01*
X28286Y57349D01*
X29072Y56823D01*
X30000Y56638D01*
X30928Y56823D01*
X31714Y57349D01*
X31776Y57441D01*
X33328D01*
X35597Y55172D01*
X35576Y55063D01*
X35760Y54135D01*
X36286Y53349D01*
X37072Y52823D01*
X38000Y52639D01*
X38928Y52823D01*
X39714Y53349D01*
X40240Y54135D01*
X40424Y55063D01*
X40240Y55991D01*
X39714Y56777D01*
X38928Y57303D01*
X38000Y57487D01*
X37891Y57466D01*
X35147Y60210D01*
X34621Y60561D01*
X34000Y60685D01*
X31776D01*
X31714Y60777D01*
X30928Y61303D01*
X30000Y61488D01*
D02*
G37*
G36*
X88000Y60391D02*
X87122Y60276D01*
X86304Y59937D01*
X85602Y59398D01*
X85063Y58696D01*
X84724Y57878D01*
X84609Y57000D01*
X84724Y56122D01*
X85063Y55304D01*
X85602Y54602D01*
X86304Y54063D01*
X87122Y53724D01*
X88000Y53609D01*
X88878Y53724D01*
X89696Y54063D01*
X90398Y54602D01*
X90937Y55304D01*
X91276Y56122D01*
X91391Y57000D01*
X91276Y57878D01*
X90937Y58696D01*
X90398Y59398D01*
X89696Y59937D01*
X88878Y60276D01*
X88000Y60391D01*
D02*
G37*
G36*
X183059Y76657D02*
X176941D01*
X175063Y74779D01*
Y71024D01*
X176941Y69146D01*
X183059D01*
X184937Y71024D01*
Y74779D01*
X183059Y76657D01*
D02*
G37*
%LPD*%
D34*
X103000Y24000D02*
Y31000D01*
X94000Y55000D02*
X104000Y45000D01*
X106000D01*
X111000Y61000D02*
X134000D01*
X143609Y51390D01*
Y45391D02*
Y51390D01*
Y45391D02*
X145000Y44000D01*
X155000D01*
X157000Y42000D01*
Y28000D02*
Y42000D01*
X146000Y47000D02*
Y52000D01*
X131000Y67000D02*
X146000Y52000D01*
X115000Y67000D02*
X131000D01*
X112000Y65000D02*
X113000Y64000D01*
X112000Y65000D02*
Y69000D01*
X113000Y70000D01*
X137000D01*
X140000Y67000D01*
Y65000D02*
Y67000D01*
Y65000D02*
X156000Y49000D01*
X168000D01*
X160000Y35000D02*
Y42000D01*
X137000Y65000D02*
X160000Y42000D01*
X159000Y106000D02*
X190000D01*
X192000Y104000D01*
X30000Y59063D02*
X34000D01*
X38000Y55063D01*
X204000Y11297D02*
Y5000D01*
X200851D01*
X199802Y6050D01*
Y7099D01*
X200851Y8149D01*
X204000D01*
X200851D01*
X199802Y9198D01*
Y10248D01*
X200851Y11297D01*
X204000D01*
X194554D02*
X196653D01*
X197703Y10248D01*
Y6050D01*
X196653Y5000D01*
X194554D01*
X193505Y6050D01*
Y10248D01*
X194554Y11297D01*
X191406D02*
X187207D01*
X189307D01*
Y5000D01*
D35*
X41000Y75000D02*
D03*
X88000Y57000D02*
D03*
D36*
X180000Y64240D02*
D03*
Y72902D02*
D03*
Y81563D02*
D03*
Y90224D02*
D03*
D37*
X219370Y45342D02*
D03*
Y117783D02*
D03*
D38*
X180000Y100461D02*
D03*
D39*
X100000Y14000D02*
D03*
X120000D02*
D03*
X110000D02*
D03*
D40*
X130000D02*
D03*
D41*
X103000Y31000D02*
D03*
Y24000D02*
D03*
X94000Y55000D02*
D03*
X106000Y45000D02*
D03*
X157000Y28000D02*
D03*
X168000Y49000D02*
D03*
X146000Y47000D02*
D03*
X160000Y35000D02*
D03*
X137000Y65000D02*
D03*
X111000Y61000D02*
D03*
X113000Y64000D02*
D03*
X115000Y67000D02*
D03*
X159000Y106000D02*
D03*
X192000Y104000D02*
D03*
D42*
X87000Y100000D02*
D03*
X102000Y115000D02*
D03*
X127000Y99000D02*
D03*
X122000D02*
D03*
X118000D02*
D03*
X131000D02*
D03*
X134000Y102000D02*
D03*
Y106000D02*
D03*
Y110000D02*
D03*
X115000Y102000D02*
D03*
Y106000D02*
D03*
Y110000D02*
D03*
X59000Y37000D02*
D03*
X143000Y17000D02*
D03*
X168000Y90000D02*
D03*
X146000Y41000D02*
D03*
X117000Y55000D02*
D03*
X109000Y84000D02*
D03*
X190000Y15000D02*
D03*
X147000Y128063D02*
D03*
X108000Y140063D02*
D03*
X13000Y47063D02*
D03*
X28000Y67063D02*
D03*
X30000Y102063D02*
D03*
X65000Y82063D02*
D03*
X57000Y95063D02*
D03*
X70000Y98063D02*
D03*
X30000Y59063D02*
D03*
X38000Y55063D02*
D03*
M02*
