G04 Layer_Color=16711935*
%FSLAX25Y25*%
%MOIN*%
G70*
G01*
G75*
%ADD67C,0.05124*%
G04:AMPARAMS|DCode=68|XSize=59.12mil|YSize=82.74mil|CornerRadius=0mil|HoleSize=0mil|Usage=FLASHONLY|Rotation=90.000|XOffset=0mil|YOffset=0mil|HoleType=Round|Shape=Octagon|*
%AMOCTAGOND68*
4,1,8,-0.04137,-0.01478,-0.04137,0.01478,-0.02659,0.02956,0.02659,0.02956,0.04137,0.01478,0.04137,-0.01478,0.02659,-0.02956,-0.02659,-0.02956,-0.04137,-0.01478,0.0*
%
%ADD68OCTAGOND68*%

%ADD69C,0.18116*%
G04:AMPARAMS|DCode=70|XSize=59.12mil|YSize=82.74mil|CornerRadius=7.51mil|HoleSize=0mil|Usage=FLASHONLY|Rotation=90.000|XOffset=0mil|YOffset=0mil|HoleType=Round|Shape=RoundedRectangle|*
%AMROUNDEDRECTD70*
21,1,0.05912,0.06772,0,0,90.0*
21,1,0.04409,0.08274,0,0,90.0*
1,1,0.01502,0.03386,0.02205*
1,1,0.01502,0.03386,-0.02205*
1,1,0.01502,-0.03386,-0.02205*
1,1,0.01502,-0.03386,0.02205*
%
%ADD70ROUNDEDRECTD70*%
%ADD71P,0.08103X8X202.5*%
G04:AMPARAMS|DCode=72|XSize=74.87mil|YSize=74.87mil|CornerRadius=19.72mil|HoleSize=0mil|Usage=FLASHONLY|Rotation=180.000|XOffset=0mil|YOffset=0mil|HoleType=Round|Shape=RoundedRectangle|*
%AMROUNDEDRECTD72*
21,1,0.07487,0.03543,0,0,180.0*
21,1,0.03543,0.07487,0,0,180.0*
1,1,0.03943,-0.01772,0.01772*
1,1,0.03943,0.01772,0.01772*
1,1,0.03943,0.01772,-0.01772*
1,1,0.03943,-0.01772,-0.01772*
%
%ADD72ROUNDEDRECTD72*%
%ADD73C,0.00400*%
%ADD74C,0.01600*%
%ADD75C,0.01975*%
D67*
X41000Y75000D02*
D03*
X88000Y57000D02*
D03*
D68*
X180000Y64240D02*
D03*
Y72902D02*
D03*
Y81563D02*
D03*
Y90224D02*
D03*
D69*
X219370Y45342D02*
D03*
Y117783D02*
D03*
D70*
X180000Y100461D02*
D03*
D71*
X100000Y14000D02*
D03*
X120000D02*
D03*
X110000D02*
D03*
D72*
X130000D02*
D03*
D73*
X15748Y15748D02*
D03*
X220472Y141732D02*
D03*
X15748D02*
D03*
X220472Y15748D02*
D03*
D74*
X103000Y31000D02*
D03*
Y24000D02*
D03*
X94000Y55000D02*
D03*
X106000Y45000D02*
D03*
X157000Y28000D02*
D03*
X168000Y49000D02*
D03*
X146000Y47000D02*
D03*
X160000Y35000D02*
D03*
X137000Y65000D02*
D03*
X111000Y61000D02*
D03*
X113000Y64000D02*
D03*
X115000Y67000D02*
D03*
X159000Y106000D02*
D03*
X192000Y104000D02*
D03*
D75*
X87000Y100000D02*
D03*
X102000Y115000D02*
D03*
X127000Y99000D02*
D03*
X122000D02*
D03*
X118000D02*
D03*
X131000D02*
D03*
X134000Y102000D02*
D03*
Y106000D02*
D03*
Y110000D02*
D03*
X115000Y102000D02*
D03*
Y106000D02*
D03*
Y110000D02*
D03*
X59000Y37000D02*
D03*
X143000Y17000D02*
D03*
X168000Y90000D02*
D03*
X146000Y41000D02*
D03*
X117000Y55000D02*
D03*
X109000Y84000D02*
D03*
X190000Y15000D02*
D03*
X147000Y128063D02*
D03*
X108000Y140063D02*
D03*
X13000Y47063D02*
D03*
X28000Y67063D02*
D03*
X30000Y102063D02*
D03*
X65000Y82063D02*
D03*
X57000Y95063D02*
D03*
X70000Y98063D02*
D03*
X30000Y59063D02*
D03*
X38000Y55063D02*
D03*
M02*
