M48
;Layer_Color=9474304
;FILE_FORMAT=2:5
INCH,LZ
;TYPE=PLATED
T1F00S00C0.01200
T2F00S00C0.01575
T3F00S00C0.03150
T4F00S00C0.03937
T5F00S00C0.04724
T6F00S00C0.11024
%
T01
X0103Y0024
Y0031
X0106Y0045
X0146Y0047
X0168Y0049
X016Y0035
X0157Y0028
X0094Y0055
X0111Y0061
X0113Y0064
X0115Y0067
X0137Y0065
X0159Y0106
X0192Y0104
T02
X0143Y0017
X0146Y0041
X019Y0015
X0059Y0037
X0013Y0047063
X003Y0059063
X0028Y0067063
X0038Y0055063
X0065Y0082063
X0057Y0095063
X007Y0098063
X0087Y01
X0102Y0115
X003Y0102063
X0115Y0102
Y0106
Y011
X0118Y0099
X0122
X0127
X0131
X0134Y0102
Y0106
Y011
X0147Y0128063
X0108Y0140063
X0109Y0084
X0117Y0055
X0168Y009
T03
X0041Y0075
X0088Y0057
T04
X018Y006424
Y0072902
Y0081563
Y0090224
Y0100461
T05
X011Y0014
X012
X013
X01
T06
X021937Y0045342
Y0117783
M30
