G04 Layer_Physical_Order=1*
G04 Layer_Color=255*
%FSLAX25Y25*%
%MOIN*%
G70*
G01*
G75*
G04:AMPARAMS|DCode=10|XSize=49.21mil|YSize=27.56mil|CornerRadius=2.76mil|HoleSize=0mil|Usage=FLASHONLY|Rotation=180.000|XOffset=0mil|YOffset=0mil|HoleType=Round|Shape=RoundedRectangle|*
%AMROUNDEDRECTD10*
21,1,0.04921,0.02205,0,0,180.0*
21,1,0.04370,0.02756,0,0,180.0*
1,1,0.00551,-0.02185,0.01102*
1,1,0.00551,0.02185,0.01102*
1,1,0.00551,0.02185,-0.01102*
1,1,0.00551,-0.02185,-0.01102*
%
%ADD10ROUNDEDRECTD10*%
G04:AMPARAMS|DCode=11|XSize=55.12mil|YSize=51.18mil|CornerRadius=5.12mil|HoleSize=0mil|Usage=FLASHONLY|Rotation=0.000|XOffset=0mil|YOffset=0mil|HoleType=Round|Shape=RoundedRectangle|*
%AMROUNDEDRECTD11*
21,1,0.05512,0.04095,0,0,0.0*
21,1,0.04488,0.05118,0,0,0.0*
1,1,0.01024,0.02244,-0.02047*
1,1,0.01024,-0.02244,-0.02047*
1,1,0.01024,-0.02244,0.02047*
1,1,0.01024,0.02244,0.02047*
%
%ADD11ROUNDEDRECTD11*%
G04:AMPARAMS|DCode=12|XSize=49.21mil|YSize=31.5mil|CornerRadius=3.15mil|HoleSize=0mil|Usage=FLASHONLY|Rotation=180.000|XOffset=0mil|YOffset=0mil|HoleType=Round|Shape=RoundedRectangle|*
%AMROUNDEDRECTD12*
21,1,0.04921,0.02520,0,0,180.0*
21,1,0.04291,0.03150,0,0,180.0*
1,1,0.00630,-0.02146,0.01260*
1,1,0.00630,0.02146,0.01260*
1,1,0.00630,0.02146,-0.01260*
1,1,0.00630,-0.02146,-0.01260*
%
%ADD12ROUNDEDRECTD12*%
%ADD13R,0.02756X0.11811*%
G04:AMPARAMS|DCode=14|XSize=27.56mil|YSize=118.11mil|CornerRadius=4.13mil|HoleSize=0mil|Usage=FLASHONLY|Rotation=180.000|XOffset=0mil|YOffset=0mil|HoleType=Round|Shape=RoundedRectangle|*
%AMROUNDEDRECTD14*
21,1,0.02756,0.10984,0,0,180.0*
21,1,0.01929,0.11811,0,0,180.0*
1,1,0.00827,-0.00965,0.05492*
1,1,0.00827,0.00965,0.05492*
1,1,0.00827,0.00965,-0.05492*
1,1,0.00827,-0.00965,-0.05492*
%
%ADD14ROUNDEDRECTD14*%
G04:AMPARAMS|DCode=15|XSize=37.4mil|YSize=86.61mil|CornerRadius=3.74mil|HoleSize=0mil|Usage=FLASHONLY|Rotation=0.000|XOffset=0mil|YOffset=0mil|HoleType=Round|Shape=RoundedRectangle|*
%AMROUNDEDRECTD15*
21,1,0.03740,0.07913,0,0,0.0*
21,1,0.02992,0.08661,0,0,0.0*
1,1,0.00748,0.01496,-0.03957*
1,1,0.00748,-0.01496,-0.03957*
1,1,0.00748,-0.01496,0.03957*
1,1,0.00748,0.01496,0.03957*
%
%ADD15ROUNDEDRECTD15*%
G04:AMPARAMS|DCode=16|XSize=129.92mil|YSize=94.49mil|CornerRadius=9.45mil|HoleSize=0mil|Usage=FLASHONLY|Rotation=0.000|XOffset=0mil|YOffset=0mil|HoleType=Round|Shape=RoundedRectangle|*
%AMROUNDEDRECTD16*
21,1,0.12992,0.07559,0,0,0.0*
21,1,0.11102,0.09449,0,0,0.0*
1,1,0.01890,0.05551,-0.03780*
1,1,0.01890,-0.05551,-0.03780*
1,1,0.01890,-0.05551,0.03780*
1,1,0.01890,0.05551,0.03780*
%
%ADD16ROUNDEDRECTD16*%
G04:AMPARAMS|DCode=17|XSize=90.55mil|YSize=64.96mil|CornerRadius=9.74mil|HoleSize=0mil|Usage=FLASHONLY|Rotation=0.000|XOffset=0mil|YOffset=0mil|HoleType=Round|Shape=RoundedRectangle|*
%AMROUNDEDRECTD17*
21,1,0.09055,0.04547,0,0,0.0*
21,1,0.07106,0.06496,0,0,0.0*
1,1,0.01949,0.03553,-0.02274*
1,1,0.01949,-0.03553,-0.02274*
1,1,0.01949,-0.03553,0.02274*
1,1,0.01949,0.03553,0.02274*
%
%ADD17ROUNDEDRECTD17*%
G04:AMPARAMS|DCode=18|XSize=49.21mil|YSize=27.56mil|CornerRadius=2.76mil|HoleSize=0mil|Usage=FLASHONLY|Rotation=90.000|XOffset=0mil|YOffset=0mil|HoleType=Round|Shape=RoundedRectangle|*
%AMROUNDEDRECTD18*
21,1,0.04921,0.02205,0,0,90.0*
21,1,0.04370,0.02756,0,0,90.0*
1,1,0.00551,0.01102,0.02185*
1,1,0.00551,0.01102,-0.02185*
1,1,0.00551,-0.01102,-0.02185*
1,1,0.00551,-0.01102,0.02185*
%
%ADD18ROUNDEDRECTD18*%
G04:AMPARAMS|DCode=19|XSize=74.8mil|YSize=98.42mil|CornerRadius=11.22mil|HoleSize=0mil|Usage=FLASHONLY|Rotation=270.000|XOffset=0mil|YOffset=0mil|HoleType=Round|Shape=RoundedRectangle|*
%AMROUNDEDRECTD19*
21,1,0.07480,0.07598,0,0,270.0*
21,1,0.05236,0.09842,0,0,270.0*
1,1,0.02244,-0.03799,-0.02618*
1,1,0.02244,-0.03799,0.02618*
1,1,0.02244,0.03799,0.02618*
1,1,0.02244,0.03799,-0.02618*
%
%ADD19ROUNDEDRECTD19*%
G04:AMPARAMS|DCode=20|XSize=19.68mil|YSize=51.18mil|CornerRadius=4.92mil|HoleSize=0mil|Usage=FLASHONLY|Rotation=0.000|XOffset=0mil|YOffset=0mil|HoleType=Round|Shape=RoundedRectangle|*
%AMROUNDEDRECTD20*
21,1,0.01968,0.04134,0,0,0.0*
21,1,0.00984,0.05118,0,0,0.0*
1,1,0.00984,0.00492,-0.02067*
1,1,0.00984,-0.00492,-0.02067*
1,1,0.00984,-0.00492,0.02067*
1,1,0.00984,0.00492,0.02067*
%
%ADD20ROUNDEDRECTD20*%
G04:AMPARAMS|DCode=21|XSize=19.68mil|YSize=51.18mil|CornerRadius=4.92mil|HoleSize=0mil|Usage=FLASHONLY|Rotation=90.000|XOffset=0mil|YOffset=0mil|HoleType=Round|Shape=RoundedRectangle|*
%AMROUNDEDRECTD21*
21,1,0.01968,0.04134,0,0,90.0*
21,1,0.00984,0.05118,0,0,90.0*
1,1,0.00984,0.02067,0.00492*
1,1,0.00984,0.02067,-0.00492*
1,1,0.00984,-0.02067,-0.00492*
1,1,0.00984,-0.02067,0.00492*
%
%ADD21ROUNDEDRECTD21*%
G04:AMPARAMS|DCode=22|XSize=49.21mil|YSize=31.5mil|CornerRadius=3.15mil|HoleSize=0mil|Usage=FLASHONLY|Rotation=270.000|XOffset=0mil|YOffset=0mil|HoleType=Round|Shape=RoundedRectangle|*
%AMROUNDEDRECTD22*
21,1,0.04921,0.02520,0,0,270.0*
21,1,0.04291,0.03150,0,0,270.0*
1,1,0.00630,-0.01260,-0.02146*
1,1,0.00630,-0.01260,0.02146*
1,1,0.00630,0.01260,0.02146*
1,1,0.00630,0.01260,-0.02146*
%
%ADD22ROUNDEDRECTD22*%
G04:AMPARAMS|DCode=23|XSize=106.3mil|YSize=66.93mil|CornerRadius=6.69mil|HoleSize=0mil|Usage=FLASHONLY|Rotation=0.000|XOffset=0mil|YOffset=0mil|HoleType=Round|Shape=RoundedRectangle|*
%AMROUNDEDRECTD23*
21,1,0.10630,0.05354,0,0,0.0*
21,1,0.09291,0.06693,0,0,0.0*
1,1,0.01339,0.04646,-0.02677*
1,1,0.01339,-0.04646,-0.02677*
1,1,0.01339,-0.04646,0.02677*
1,1,0.01339,0.04646,0.02677*
%
%ADD23ROUNDEDRECTD23*%
G04:AMPARAMS|DCode=24|XSize=31.5mil|YSize=25.59mil|CornerRadius=6.4mil|HoleSize=0mil|Usage=FLASHONLY|Rotation=0.000|XOffset=0mil|YOffset=0mil|HoleType=Round|Shape=RoundedRectangle|*
%AMROUNDEDRECTD24*
21,1,0.03150,0.01279,0,0,0.0*
21,1,0.01870,0.02559,0,0,0.0*
1,1,0.01279,0.00935,-0.00640*
1,1,0.01279,-0.00935,-0.00640*
1,1,0.01279,-0.00935,0.00640*
1,1,0.01279,0.00935,0.00640*
%
%ADD24ROUNDEDRECTD24*%
G04:AMPARAMS|DCode=25|XSize=23.62mil|YSize=62.99mil|CornerRadius=2.36mil|HoleSize=0mil|Usage=FLASHONLY|Rotation=180.000|XOffset=0mil|YOffset=0mil|HoleType=Round|Shape=RoundedRectangle|*
%AMROUNDEDRECTD25*
21,1,0.02362,0.05827,0,0,180.0*
21,1,0.01890,0.06299,0,0,180.0*
1,1,0.00472,-0.00945,0.02913*
1,1,0.00472,0.00945,0.02913*
1,1,0.00472,0.00945,-0.02913*
1,1,0.00472,-0.00945,-0.02913*
%
%ADD25ROUNDEDRECTD25*%
G04:AMPARAMS|DCode=26|XSize=31.5mil|YSize=25.59mil|CornerRadius=6.4mil|HoleSize=0mil|Usage=FLASHONLY|Rotation=270.000|XOffset=0mil|YOffset=0mil|HoleType=Round|Shape=RoundedRectangle|*
%AMROUNDEDRECTD26*
21,1,0.03150,0.01279,0,0,270.0*
21,1,0.01870,0.02559,0,0,270.0*
1,1,0.01279,-0.00640,-0.00935*
1,1,0.01279,-0.00640,0.00935*
1,1,0.01279,0.00640,0.00935*
1,1,0.01279,0.00640,-0.00935*
%
%ADD26ROUNDEDRECTD26*%
G04:AMPARAMS|DCode=27|XSize=55.12mil|YSize=31.5mil|CornerRadius=3.15mil|HoleSize=0mil|Usage=FLASHONLY|Rotation=0.000|XOffset=0mil|YOffset=0mil|HoleType=Round|Shape=RoundedRectangle|*
%AMROUNDEDRECTD27*
21,1,0.05512,0.02520,0,0,0.0*
21,1,0.04882,0.03150,0,0,0.0*
1,1,0.00630,0.02441,-0.01260*
1,1,0.00630,-0.02441,-0.01260*
1,1,0.00630,-0.02441,0.01260*
1,1,0.00630,0.02441,0.01260*
%
%ADD27ROUNDEDRECTD27*%
%ADD28R,0.06299X0.01968*%
%ADD29R,0.07480X0.05118*%
G04:AMPARAMS|DCode=30|XSize=15.75mil|YSize=39.37mil|CornerRadius=2.36mil|HoleSize=0mil|Usage=FLASHONLY|Rotation=0.000|XOffset=0mil|YOffset=0mil|HoleType=Round|Shape=RoundedRectangle|*
%AMROUNDEDRECTD30*
21,1,0.01575,0.03465,0,0,0.0*
21,1,0.01102,0.03937,0,0,0.0*
1,1,0.00472,0.00551,-0.01732*
1,1,0.00472,-0.00551,-0.01732*
1,1,0.00472,-0.00551,0.01732*
1,1,0.00472,0.00551,0.01732*
%
%ADD30ROUNDEDRECTD30*%
G04:AMPARAMS|DCode=31|XSize=23.62mil|YSize=62.99mil|CornerRadius=2.36mil|HoleSize=0mil|Usage=FLASHONLY|Rotation=90.000|XOffset=0mil|YOffset=0mil|HoleType=Round|Shape=RoundedRectangle|*
%AMROUNDEDRECTD31*
21,1,0.02362,0.05827,0,0,90.0*
21,1,0.01890,0.06299,0,0,90.0*
1,1,0.00472,0.02913,0.00945*
1,1,0.00472,0.02913,-0.00945*
1,1,0.00472,-0.02913,-0.00945*
1,1,0.00472,-0.02913,0.00945*
%
%ADD31ROUNDEDRECTD31*%
G04:AMPARAMS|DCode=32|XSize=43.31mil|YSize=31.5mil|CornerRadius=4.72mil|HoleSize=0mil|Usage=FLASHONLY|Rotation=180.000|XOffset=0mil|YOffset=0mil|HoleType=Round|Shape=RoundedRectangle|*
%AMROUNDEDRECTD32*
21,1,0.04331,0.02205,0,0,180.0*
21,1,0.03386,0.03150,0,0,180.0*
1,1,0.00945,-0.01693,0.01102*
1,1,0.00945,0.01693,0.01102*
1,1,0.00945,0.01693,-0.01102*
1,1,0.00945,-0.01693,-0.01102*
%
%ADD32ROUNDEDRECTD32*%
G04:AMPARAMS|DCode=33|XSize=66.93mil|YSize=47.24mil|CornerRadius=4.72mil|HoleSize=0mil|Usage=FLASHONLY|Rotation=90.000|XOffset=0mil|YOffset=0mil|HoleType=Round|Shape=RoundedRectangle|*
%AMROUNDEDRECTD33*
21,1,0.06693,0.03780,0,0,90.0*
21,1,0.05748,0.04724,0,0,90.0*
1,1,0.00945,0.01890,0.02874*
1,1,0.00945,0.01890,-0.02874*
1,1,0.00945,-0.01890,-0.02874*
1,1,0.00945,-0.01890,0.02874*
%
%ADD33ROUNDEDRECTD33*%
%ADD34C,0.01181*%
%ADD35C,0.04724*%
G04:AMPARAMS|DCode=36|XSize=55.12mil|YSize=78.74mil|CornerRadius=0mil|HoleSize=0mil|Usage=FLASHONLY|Rotation=90.000|XOffset=0mil|YOffset=0mil|HoleType=Round|Shape=Octagon|*
%AMOCTAGOND36*
4,1,8,-0.03937,-0.01378,-0.03937,0.01378,-0.02559,0.02756,0.02559,0.02756,0.03937,0.01378,0.03937,-0.01378,0.02559,-0.02756,-0.02559,-0.02756,-0.03937,-0.01378,0.0*
%
%ADD36OCTAGOND36*%

%ADD37C,0.17716*%
G04:AMPARAMS|DCode=38|XSize=55.12mil|YSize=78.74mil|CornerRadius=5.51mil|HoleSize=0mil|Usage=FLASHONLY|Rotation=90.000|XOffset=0mil|YOffset=0mil|HoleType=Round|Shape=RoundedRectangle|*
%AMROUNDEDRECTD38*
21,1,0.05512,0.06772,0,0,90.0*
21,1,0.04409,0.07874,0,0,90.0*
1,1,0.01102,0.03386,0.02205*
1,1,0.01102,0.03386,-0.02205*
1,1,0.01102,-0.03386,-0.02205*
1,1,0.01102,-0.03386,0.02205*
%
%ADD38ROUNDEDRECTD38*%
%ADD39P,0.07671X8X202.5*%
G04:AMPARAMS|DCode=40|XSize=70.87mil|YSize=70.87mil|CornerRadius=17.72mil|HoleSize=0mil|Usage=FLASHONLY|Rotation=180.000|XOffset=0mil|YOffset=0mil|HoleType=Round|Shape=RoundedRectangle|*
%AMROUNDEDRECTD40*
21,1,0.07087,0.03543,0,0,180.0*
21,1,0.03543,0.07087,0,0,180.0*
1,1,0.03543,-0.01772,0.01772*
1,1,0.03543,0.01772,0.01772*
1,1,0.03543,0.01772,-0.01772*
1,1,0.03543,-0.01772,-0.01772*
%
%ADD40ROUNDEDRECTD40*%
%ADD41C,0.02400*%
%ADD42C,0.02756*%
G36*
X140000Y95000D02*
X138000Y93000D01*
X112000D01*
X109000Y96000D01*
Y122000D01*
X140000D01*
Y95000D01*
D02*
G37*
D10*
X75000Y86323D02*
D03*
Y93803D02*
D03*
X150000Y109323D02*
D03*
Y116803D02*
D03*
X13000Y63323D02*
D03*
Y70803D02*
D03*
Y50323D02*
D03*
Y57803D02*
D03*
X91000Y48740D02*
D03*
Y41260D02*
D03*
X98000Y48740D02*
D03*
Y41260D02*
D03*
X120000Y23260D02*
D03*
Y30740D02*
D03*
X110000Y23260D02*
D03*
Y30740D02*
D03*
X83000Y101803D02*
D03*
Y94323D02*
D03*
X129000Y79323D02*
D03*
Y86803D02*
D03*
X121000Y79323D02*
D03*
Y86803D02*
D03*
X98000Y29740D02*
D03*
Y22260D02*
D03*
X159000Y116803D02*
D03*
Y109323D02*
D03*
D11*
X165000Y123158D02*
D03*
Y134968D02*
D03*
D12*
X151870Y128020D02*
D03*
Y135106D02*
D03*
X13000Y43606D02*
D03*
Y36520D02*
D03*
X136000Y54606D02*
D03*
Y47520D02*
D03*
X143000Y20457D02*
D03*
Y27543D02*
D03*
X185000Y15520D02*
D03*
Y22606D02*
D03*
D13*
X46960Y110331D02*
D03*
D14*
Y93795D02*
D03*
X41960Y110331D02*
D03*
Y93795D02*
D03*
X36960Y110331D02*
D03*
X31960D02*
D03*
X26960D02*
D03*
X36960Y93795D02*
D03*
X31960D02*
D03*
X26960D02*
D03*
D15*
X133425Y130768D02*
D03*
X124370D02*
D03*
X115315D02*
D03*
D16*
X124370Y106358D02*
D03*
D17*
X101870Y120059D02*
D03*
Y132067D02*
D03*
D18*
X125260Y140063D02*
D03*
X132740D02*
D03*
X112260D02*
D03*
X119740D02*
D03*
D19*
X176870Y139437D02*
D03*
Y123689D02*
D03*
D20*
X51976Y76886D02*
D03*
X55126D02*
D03*
X58276D02*
D03*
X61425D02*
D03*
X64575D02*
D03*
X67724D02*
D03*
X70874D02*
D03*
X74024D02*
D03*
Y42240D02*
D03*
X70874D02*
D03*
X67724D02*
D03*
X64575D02*
D03*
X61425D02*
D03*
X58276D02*
D03*
X55126D02*
D03*
X51976D02*
D03*
D21*
X80323Y70587D02*
D03*
Y67437D02*
D03*
Y64287D02*
D03*
Y61138D02*
D03*
Y57988D02*
D03*
Y54839D02*
D03*
Y51689D02*
D03*
Y48539D02*
D03*
X45677D02*
D03*
Y51689D02*
D03*
Y54839D02*
D03*
Y57988D02*
D03*
Y61138D02*
D03*
Y64287D02*
D03*
Y67437D02*
D03*
Y70587D02*
D03*
D22*
X75543Y28000D02*
D03*
X68457D02*
D03*
X75543Y35000D02*
D03*
X68457D02*
D03*
X104543Y86063D02*
D03*
X97457D02*
D03*
X69543Y93063D02*
D03*
X62457D02*
D03*
X163543Y90000D02*
D03*
X156457D02*
D03*
D23*
X85000Y23669D02*
D03*
Y32331D02*
D03*
D24*
X57000Y86209D02*
D03*
Y91917D02*
D03*
D25*
X98500Y56039D02*
D03*
X103500D02*
D03*
X108500D02*
D03*
X113500D02*
D03*
X98500Y78087D02*
D03*
X103500D02*
D03*
X108500D02*
D03*
X113500D02*
D03*
D26*
X50146Y34563D02*
D03*
X55854D02*
D03*
X62146Y87063D02*
D03*
X67854D02*
D03*
D27*
X83000Y81126D02*
D03*
Y89000D02*
D03*
X129000Y74000D02*
D03*
Y66126D02*
D03*
X121000Y74000D02*
D03*
Y66126D02*
D03*
D28*
X22882Y55626D02*
D03*
Y63500D02*
D03*
Y71374D02*
D03*
Y67437D02*
D03*
Y59563D02*
D03*
Y51689D02*
D03*
Y47752D02*
D03*
D29*
X32970Y42634D02*
D03*
Y76492D02*
D03*
D30*
X121661Y43189D02*
D03*
X124221D02*
D03*
X126779D02*
D03*
X129339D02*
D03*
X121661Y58937D02*
D03*
X124221D02*
D03*
X126779D02*
D03*
X129339D02*
D03*
D31*
X173524Y16563D02*
D03*
Y21563D02*
D03*
Y26563D02*
D03*
Y31563D02*
D03*
Y36563D02*
D03*
Y41563D02*
D03*
Y46563D02*
D03*
X151476Y16563D02*
D03*
Y21563D02*
D03*
Y26563D02*
D03*
Y31563D02*
D03*
Y36563D02*
D03*
Y41563D02*
D03*
Y46563D02*
D03*
D32*
X168799Y56307D02*
D03*
X156201D02*
D03*
Y61819D02*
D03*
X168799D02*
D03*
D33*
X156595Y71563D02*
D03*
X168405D02*
D03*
X156595Y81563D02*
D03*
X168405D02*
D03*
D34*
X79000Y17000D02*
X88000Y8000D01*
X61000Y17000D02*
X79000D01*
X50146Y27854D02*
X61000Y17000D01*
X88000Y8000D02*
X96000D01*
X50146Y27854D02*
Y34563D01*
X85839Y54839D02*
X88000Y57000D01*
X80323Y54839D02*
X85839D01*
X41000Y66000D02*
Y75000D01*
Y66000D02*
X42713Y64287D01*
X45677D01*
X91000Y41260D02*
X98000D01*
X103000Y36260D01*
Y31000D02*
Y36260D01*
X94740Y45000D02*
X101000D01*
X101260Y22260D02*
X103000Y24000D01*
X98000Y22260D02*
X101260D01*
X96000Y8000D02*
X124000D01*
X94000Y10000D02*
X96000Y8000D01*
X94000Y10000D02*
Y18260D01*
X98000Y22260D01*
Y29740D02*
Y33000D01*
X93000Y38000D02*
X98000Y33000D01*
X85000Y38000D02*
X93000D01*
X98000Y29740D02*
X100740Y27000D01*
X85197Y101803D02*
X87000Y100000D01*
X83000Y101803D02*
X85197D01*
X176870Y139437D02*
X184563D01*
X188000Y136000D01*
Y67000D02*
Y136000D01*
X185240Y64240D02*
X188000Y67000D01*
X180000Y64240D02*
X185240D01*
X101870Y115130D02*
X102000Y115000D01*
X101870Y115130D02*
Y120059D01*
X68457Y28000D02*
Y35000D01*
X59000Y37000D02*
X66457D01*
X68457Y35000D01*
X55126Y39000D02*
Y42240D01*
Y35291D02*
Y39000D01*
X57126Y37000D01*
X59000D01*
X55126Y35291D02*
X55854Y34563D01*
X121661Y38339D02*
X125000Y35000D01*
X121661Y38339D02*
Y43189D01*
X125000Y29000D02*
Y35000D01*
X123000Y27000D02*
X125000Y29000D01*
X100740Y27000D02*
X123000D01*
X106000Y45000D02*
X108000Y47000D01*
X123000D01*
X124221Y45779D01*
Y43189D02*
Y45779D01*
X91000Y51689D02*
X95051D01*
X80323D02*
X91000D01*
Y52000D01*
X94000Y55000D01*
X106000Y45000D02*
X120000Y31000D01*
Y30740D02*
Y31000D01*
X101000Y45000D02*
X110000Y36000D01*
Y30740D02*
Y36000D01*
X103500Y47500D02*
X105000Y49000D01*
X125000D01*
X126779Y47221D01*
Y43189D02*
Y47221D01*
X91000Y48740D02*
X94740Y45000D01*
X101000D02*
X103500Y47500D01*
X98000Y48740D02*
X98500Y49240D01*
Y56039D01*
X95051Y51689D02*
X98000Y48740D01*
X90799Y48539D02*
X91000Y48740D01*
X80323Y48539D02*
X90799D01*
X75543Y28000D02*
X79874Y23669D01*
X85000D01*
X75543Y35000D02*
X78213Y32331D01*
X85000D01*
X76000Y47000D02*
X85000Y38000D01*
X66000Y47000D02*
X76000D01*
X64575Y45575D02*
X66000Y47000D01*
X64575Y42240D02*
Y45575D01*
X18000Y78000D02*
Y118063D01*
Y73063D02*
Y78000D01*
X13000Y73000D02*
X18000Y78000D01*
X13000Y70803D02*
Y73000D01*
X50146Y34563D02*
X51976Y36394D01*
Y42240D01*
X124000Y8000D02*
X130000Y14000D01*
Y21000D02*
X136606Y27606D01*
X72000Y31543D02*
X75543Y28000D01*
X72000Y31543D02*
Y38000D01*
X70874Y39126D02*
X72000Y38000D01*
X70874Y39126D02*
Y42240D01*
X74024Y36520D02*
X75543Y35000D01*
X74024Y36520D02*
Y42240D01*
X110000Y14000D02*
Y23260D01*
X120000Y14000D02*
Y23260D01*
X143000Y17000D02*
Y20457D01*
X159166Y43834D02*
X164000Y39000D01*
Y22000D02*
Y39000D01*
X158563Y16563D02*
X164000Y22000D01*
X159166Y43834D02*
Y46834D01*
X171437Y36563D02*
X173524D01*
X163000Y45000D02*
X171437Y36563D01*
X163000Y45000D02*
Y53000D01*
X171437Y41563D02*
X173524D01*
X165000Y48000D02*
X171437Y41563D01*
X165000Y48000D02*
Y55000D01*
X150000Y56000D02*
X159166Y46834D01*
X150000Y56000D02*
Y109323D01*
X156457Y90000D02*
X156595Y89862D01*
Y81563D02*
Y89862D01*
X163543Y90000D02*
X168000D01*
X125000Y125063D02*
X141740D01*
X150000Y116803D01*
X151476Y16563D02*
X158563D01*
X146000Y41000D02*
X146563Y41563D01*
X151476D01*
X156563Y31563D02*
X160000Y35000D01*
X151476Y31563D02*
X156563D01*
X157000Y23000D02*
Y28000D01*
X155563Y21563D02*
X157000Y23000D01*
X151476Y21563D02*
X155563D01*
X168000Y49000D02*
X170437Y46563D01*
X173524D01*
X146437D02*
X151476D01*
X146000Y47000D02*
X146437Y46563D01*
X110862Y61138D02*
X111000Y61000D01*
X80323Y61138D02*
X110862D01*
X112713Y64287D02*
X113000Y64000D01*
X80323Y64287D02*
X112713D01*
X114563Y67437D02*
X115000Y67000D01*
X80323Y67437D02*
X114563D01*
X137000Y65000D02*
Y68000D01*
X134413Y70587D02*
X137000Y68000D01*
X80323Y70587D02*
X134413D01*
X136606Y27606D02*
X142500D01*
X130000Y14000D02*
Y21000D01*
X142500Y27606D02*
X143606D01*
X146000Y30000D01*
Y35000D01*
X147563Y36563D01*
X151476D01*
X142500Y27606D02*
X143543Y26563D01*
X151476D01*
X141000Y50000D02*
X142500Y48500D01*
Y27606D02*
Y48500D01*
X129339Y43189D02*
Y46339D01*
X130520Y47520D01*
X136000D01*
X129000Y86803D02*
X141000Y74803D01*
Y50000D02*
Y74803D01*
X138520Y47520D02*
X141000Y50000D01*
X136000Y47520D02*
X138520D01*
X128000Y55000D02*
X135606D01*
X136000Y54606D01*
X120000Y55000D02*
X128000D01*
X129339Y56339D01*
Y58937D01*
X117000Y55000D02*
X120000D01*
X121661Y56661D01*
Y58937D01*
X115961Y56039D02*
X117000Y55000D01*
X113500Y56039D02*
X115961D01*
X103500Y78087D02*
X108500D01*
X109000Y84000D02*
X112000D01*
X113500Y82500D01*
Y78087D02*
Y82500D01*
X108500Y83500D02*
X109000Y84000D01*
X108500Y78087D02*
Y83500D01*
X106937Y86063D02*
X109000Y84000D01*
X104543Y86063D02*
X106937D01*
X97457Y94000D02*
Y98543D01*
Y86063D02*
Y94000D01*
X100457Y91000D01*
X116000D01*
X120197Y86803D01*
X121000D01*
X129000D01*
X97457Y86063D02*
X98500Y85020D01*
Y78087D02*
Y85020D01*
X75000Y112000D02*
Y125063D01*
Y93803D02*
Y112000D01*
X80000Y107000D01*
X89000D01*
X97457Y98543D01*
X121000Y74000D02*
Y79323D01*
X129000Y74000D02*
Y79323D01*
X121000Y66126D02*
X124221Y62906D01*
Y58937D02*
Y62906D01*
X126779Y63906D02*
X129000Y66126D01*
X126779Y58937D02*
Y63906D01*
X189480Y15520D02*
X190000Y15000D01*
X185000Y15520D02*
X189480D01*
X181043Y26563D02*
X185000Y22606D01*
X173524Y26563D02*
X181043D01*
X159000Y106000D02*
Y109323D01*
X192000Y29606D02*
Y104000D01*
X185000Y22606D02*
X192000Y29606D01*
X183957Y21563D02*
X185000Y22606D01*
X173524Y21563D02*
X183957D01*
X156201Y56307D02*
X159693D01*
X163000Y53000D01*
X156201Y61819D02*
X158181D01*
X165000Y55000D01*
X156595Y71563D02*
Y81563D01*
X164853Y60254D02*
X168799Y56307D01*
X164853Y60254D02*
Y78010D01*
X168405Y81563D01*
Y71563D02*
X168799Y71169D01*
Y61819D02*
Y71169D01*
X168405Y71563D02*
X169744Y72902D01*
X180000D01*
X168405Y81563D02*
X180000D01*
X18000Y118063D02*
X47000Y147063D01*
X151827Y128063D02*
X151870Y128020D01*
X147000Y128063D02*
X151827D01*
X165000Y131063D02*
Y134968D01*
X159000Y125063D02*
X165000Y131063D01*
X159000Y116803D02*
Y125063D01*
X151870Y135106D02*
X152008Y134968D01*
X165000D01*
Y123689D02*
X176870D01*
X180000Y120559D01*
Y100461D02*
Y120559D01*
X124370Y125693D02*
X125000Y125063D01*
X124370Y125693D02*
Y130768D01*
X108000Y140063D02*
X112260D01*
X119740D02*
X125260D01*
X124370Y139173D02*
X125260Y140063D01*
X124370Y130768D02*
Y139173D01*
X132740Y140063D02*
X133425Y139378D01*
Y130768D02*
Y139378D01*
X137764Y135106D02*
X151870D01*
X133425Y130768D02*
X137764Y135106D01*
X47000Y147063D02*
X139913D01*
X151870Y135106D01*
X18000Y73063D02*
X19689Y71374D01*
X22882D01*
X13000Y43606D02*
Y47063D01*
X9000Y40063D02*
X13000Y36063D01*
X40000D01*
X51000Y47063D01*
X13000D02*
Y50323D01*
X51000Y47063D02*
X59000D01*
X61425Y44638D01*
Y42240D02*
Y44638D01*
X9000Y40063D02*
Y55063D01*
X11740Y57803D01*
X13000D01*
Y63323D01*
X27626Y67437D02*
X28000Y67063D01*
X22882Y67437D02*
X27626D01*
X34500Y102063D02*
X39000D01*
X30000D02*
X34500D01*
X36960Y104523D01*
Y110331D01*
X39000Y102063D02*
X41960Y105023D01*
Y110331D01*
X26960Y105103D02*
X30000Y102063D01*
X26960Y105103D02*
Y110331D01*
X64575Y81638D02*
X65000Y82063D01*
X64575Y76886D02*
Y81638D01*
X70874Y82197D02*
X75000Y86323D01*
X70874Y76886D02*
Y82197D01*
X75000Y125063D02*
X82004Y132067D01*
X60000Y110063D02*
X75000Y125063D01*
X54000Y104063D02*
X60000Y110063D01*
X59732Y110331D02*
X60000Y110063D01*
X46960Y110331D02*
X59732D01*
X101870Y132067D02*
X103169Y130768D01*
X115315D01*
X82004Y132067D02*
X101870D01*
X54000Y89063D02*
Y104063D01*
Y89063D02*
X56854Y86209D01*
X57000D01*
X58276Y84933D01*
Y76886D02*
Y84933D01*
X69543Y97606D02*
X70000Y98063D01*
X69543Y93063D02*
Y97606D01*
X67854Y91374D02*
X69543Y93063D01*
X67854Y87063D02*
Y91374D01*
X57000Y91917D02*
Y95063D01*
X62146Y92752D02*
X62457Y93063D01*
X62146Y87063D02*
Y92752D01*
X61425Y86343D02*
X62146Y87063D01*
X61425Y76886D02*
Y86343D01*
X83000Y89000D02*
Y94323D01*
X75063Y81126D02*
X83000D01*
X74024Y80087D02*
X75063Y81126D01*
X74024Y76886D02*
Y80087D01*
X103500Y47500D02*
Y56039D01*
X29500Y59563D02*
X30000Y59063D01*
X22882Y59563D02*
X29500D01*
X38000Y55063D02*
X45453D01*
X45677Y54839D01*
X35000Y61063D02*
X35075Y61138D01*
X45677D01*
X32563Y63500D02*
X35000Y61063D01*
X22882Y63500D02*
X32563D01*
X22882Y47752D02*
X33689D01*
X34476Y48539D01*
X45677D01*
X22882Y51689D02*
X22882Y51689D01*
X45677D01*
X22882Y55626D02*
X32563D01*
X34925Y57988D01*
X45677D01*
X26960Y86103D02*
X29000Y84063D01*
X26960Y86103D02*
Y93795D01*
X29000Y84063D02*
X39000D01*
X51000Y72063D01*
X69000D01*
X70874Y73937D01*
Y76886D01*
X41960Y93795D02*
Y101023D01*
X43000Y102063D01*
X50000D01*
X51000Y101063D01*
Y85063D02*
Y101063D01*
Y85063D02*
X55126Y80937D01*
Y76886D02*
Y80937D01*
X46960Y84103D02*
Y93795D01*
Y84103D02*
X51976Y79087D01*
Y76886D02*
Y79087D01*
X40198Y10248D02*
X39149Y11297D01*
X37049D01*
X36000Y10248D01*
Y6050D01*
X37049Y5000D01*
X39149D01*
X40198Y6050D01*
X46495Y5000D02*
X42297D01*
X46495Y9198D01*
Y10248D01*
X45446Y11297D01*
X43347D01*
X42297Y10248D01*
X48594Y5000D02*
X50693D01*
X49644D01*
Y11297D01*
X48594Y10248D01*
X63288Y11297D02*
X61189D01*
X60139Y10248D01*
Y6050D01*
X61189Y5000D01*
X63288D01*
X64337Y6050D01*
Y10248D01*
X63288Y11297D01*
X66436Y5000D02*
Y11297D01*
X70634Y5000D01*
Y11297D01*
X76932D02*
X72733D01*
Y5000D01*
X76932D01*
X72733Y8149D02*
X74833D01*
D35*
X41000Y75000D02*
D03*
X88000Y57000D02*
D03*
D36*
X180000Y64240D02*
D03*
Y72902D02*
D03*
Y81563D02*
D03*
Y90224D02*
D03*
D37*
X219370Y45342D02*
D03*
Y117783D02*
D03*
D38*
X180000Y100461D02*
D03*
D39*
X100000Y14000D02*
D03*
X120000D02*
D03*
X110000D02*
D03*
D40*
X130000D02*
D03*
D41*
X103000Y31000D02*
D03*
Y24000D02*
D03*
X94000Y55000D02*
D03*
X106000Y45000D02*
D03*
X157000Y28000D02*
D03*
X168000Y49000D02*
D03*
X146000Y47000D02*
D03*
X160000Y35000D02*
D03*
X137000Y65000D02*
D03*
X111000Y61000D02*
D03*
X113000Y64000D02*
D03*
X115000Y67000D02*
D03*
X159000Y106000D02*
D03*
X192000Y104000D02*
D03*
D42*
X87000Y100000D02*
D03*
X102000Y115000D02*
D03*
X127000Y99000D02*
D03*
X122000D02*
D03*
X118000D02*
D03*
X131000D02*
D03*
X134000Y102000D02*
D03*
Y106000D02*
D03*
Y110000D02*
D03*
X115000Y102000D02*
D03*
Y106000D02*
D03*
Y110000D02*
D03*
X59000Y37000D02*
D03*
X143000Y17000D02*
D03*
X168000Y90000D02*
D03*
X146000Y41000D02*
D03*
X117000Y55000D02*
D03*
X109000Y84000D02*
D03*
X190000Y15000D02*
D03*
X147000Y128063D02*
D03*
X108000Y140063D02*
D03*
X13000Y47063D02*
D03*
X28000Y67063D02*
D03*
X30000Y102063D02*
D03*
X65000Y82063D02*
D03*
X57000Y95063D02*
D03*
X70000Y98063D02*
D03*
X30000Y59063D02*
D03*
X38000Y55063D02*
D03*
M02*
